<svg width="102" height="102" viewBox="0 0 102 102" fill="none" xmlns="http://www.w3.org/2000/svg">
<path d="M38.3553 36.9409C38.3454 29.4885 40.5812 22.1964 44.7867 15.9645C48.9922 9.73248 54.9835 4.83332 62.0211 1.87154C52.3464 0.0929424 42.3497 1.04897 33.2175 4.62615C24.0852 8.20334 16.201 14.2515 10.5005 22.0527C4.80003 29.8539 1.52269 39.0806 1.05748 48.6376C0.592269 58.1947 2.95873 67.6808 7.87598 75.97C12.7932 84.2592 20.0548 91.0035 28.7988 95.4023C37.5427 99.8011 47.4019 101.67 57.2062 100.786C67.0104 99.9031 76.348 96.3049 84.1106 90.419C91.8733 84.533 97.735 76.6064 101 67.58C95.1586 71.7902 88.2284 74.3409 80.9823 74.9475C73.7362 75.5541 66.4592 74.1928 59.9628 71.0155C53.4664 67.8381 48.006 62.9696 44.1907 56.9529C40.3754 50.9363 38.3552 44.008 38.3553 36.9409V36.9409Z" fill="#333333" stroke="white" stroke-width="1.42095" stroke-linecap="round" stroke-linejoin="round"/>
</svg>
